<?xml version="1.0" encoding="UTF-8" standalone="no"?>
<!DOCTYPE svg PUBLIC "-//W3C//DTD SVG 1.1//EN"
 "http://www.w3.org/Graphics/SVG/1.1/DTD/svg11.dtd">
<!-- Generated by graphviz version 2.36.0 (20140111.2315)
 -->
<!-- Title: FST Pages: 1 -->
<svg width="450pt" height="272pt"
 viewBox="0.00 0.00 450.00 272.00" xmlns="http://www.w3.org/2000/svg" xmlns:xlink="http://www.w3.org/1999/xlink">
<g id="graph0" class="graph" transform="scale(1 1) rotate(0) translate(4 268)">
<title>FST</title>
<polygon fill="white" stroke="none" points="-4,4 -4,-268 446,-268 446,4 -4,4"/>
<!-- 0 -->
<g id="node1" class="node"><title>0</title>
<ellipse fill="none" stroke="black" stroke-width="2" cx="18" cy="-139" rx="18" ry="18"/>
<text text-anchor="middle" x="18" y="-135.3" font-family="Times,serif" font-size="14.00">0</text>
</g>
<!-- 1 -->
<g id="node2" class="node"><title>1</title>
<ellipse fill="none" stroke="black" cx="198" cy="-240" rx="18" ry="18"/>
<text text-anchor="middle" x="198" y="-236.3" font-family="Times,serif" font-size="14.00">1</text>
</g>
<!-- 0&#45;&gt;1 -->
<g id="edge1" class="edge"><title>0&#45;&gt;1</title>
<path fill="none" stroke="black" d="M22.9989,-156.525C27.3527,-171.6 35.8176,-192.79 51,-205 85.1585,-232.471 137.444,-238.954 169.299,-240.168"/>
<polygon fill="black" stroke="black" points="169.574,-243.675 179.652,-240.404 169.734,-236.677 169.574,-243.675"/>
<text text-anchor="middle" x="108" y="-242.8" font-family="Times,serif" font-size="14.00">12949:мына/150.22</text>
</g>
<!-- 3 -->
<g id="node3" class="node"><title>3</title>
<ellipse fill="none" stroke="black" cx="198" cy="-157" rx="18" ry="18"/>
<text text-anchor="middle" x="198" y="-153.3" font-family="Times,serif" font-size="14.00">3</text>
</g>
<!-- 0&#45;&gt;3 -->
<g id="edge2" class="edge"><title>0&#45;&gt;3</title>
<path fill="none" stroke="black" d="M28.2982,-154.036C33.8579,-161.543 41.6576,-169.883 51,-174 97.3644,-194.432 115.836,-186.249 165,-174 167.861,-173.287 170.748,-172.265 173.554,-171.072"/>
<polygon fill="black" stroke="black" points="175.242,-174.141 182.634,-166.55 172.122,-167.875 175.242,-174.141"/>
<text text-anchor="middle" x="108" y="-189.8" font-family="Times,serif" font-size="14.00">2481:бара/246.1</text>
</g>
<!-- 0&#45;&gt;3 -->
<g id="edge3" class="edge"><title>0&#45;&gt;3</title>
<path fill="none" stroke="black" d="M36.0674,-140.726C67.0337,-143.857 132.701,-150.498 169.871,-154.257"/>
<polygon fill="black" stroke="black" points="169.683,-157.755 179.984,-155.279 170.387,-150.791 169.683,-157.755"/>
<text text-anchor="middle" x="108" y="-156.8" font-family="Times,serif" font-size="14.00">8354:кара/230.54</text>
</g>
<!-- 0&#45;&gt;3 -->
<g id="edge4" class="edge"><title>0&#45;&gt;3</title>
<path fill="none" stroke="black" d="M33.752,-129.837C38.9978,-127.071 45.0758,-124.399 51,-123 100.311,-111.359 118.489,-102.904 165,-123 170.816,-125.513 176.063,-129.66 180.547,-134.21"/>
<polygon fill="black" stroke="black" points="178.138,-136.774 187.338,-142.03 183.423,-132.184 178.138,-136.774"/>
<text text-anchor="middle" x="108" y="-126.8" font-family="Times,serif" font-size="14.00">12310:мага/225.09</text>
</g>
<!-- 5 -->
<g id="node4" class="node"><title>5</title>
<ellipse fill="none" stroke="black" cx="198" cy="-46" rx="18" ry="18"/>
<text text-anchor="middle" x="198" y="-42.3" font-family="Times,serif" font-size="14.00">5</text>
</g>
<!-- 0&#45;&gt;5 -->
<g id="edge5" class="edge"><title>0&#45;&gt;5</title>
<path fill="none" stroke="black" d="M26.2161,-122.494C31.6067,-112.01 39.9471,-98.9602 51,-91 93.6069,-60.3147 115.481,-77.4588 165,-60 167.268,-59.2004 169.601,-58.3126 171.925,-57.3831"/>
<polygon fill="black" stroke="black" points="173.386,-60.5652 181.233,-53.4465 170.66,-54.1181 173.386,-60.5652"/>
<text text-anchor="middle" x="108" y="-94.8" font-family="Times,serif" font-size="14.00">20158:ырас/218.13</text>
</g>
<!-- 0&#45;&gt;5 -->
<g id="edge6" class="edge"><title>0&#45;&gt;5</title>
<path fill="none" stroke="black" d="M18.9873,-120.906C20.0679,-97.9885 25.7919,-59.2867 51,-41 86.2284,-15.4442 139.83,-26.3961 171.344,-36.395"/>
<polygon fill="black" stroke="black" points="170.532,-39.8148 181.126,-39.6953 172.77,-33.1821 170.532,-39.8148"/>
<text text-anchor="middle" x="108" y="-44.8" font-family="Times,serif" font-size="14.00">12481:манас/241.14</text>
</g>
<!-- 2 -->
<g id="node5" class="node"><title>2</title>
<ellipse fill="none" stroke="black" cx="396" cy="-242" rx="18" ry="18"/>
<ellipse fill="none" stroke="black" cx="396" cy="-242" rx="22" ry="22"/>
<text text-anchor="middle" x="396" y="-238.3" font-family="Times,serif" font-size="14.00">2</text>
</g>
<!-- 1&#45;&gt;2 -->
<g id="edge7" class="edge"><title>1&#45;&gt;2</title>
<path fill="none" stroke="black" d="M216.051,-240.174C248.951,-240.51 321.636,-241.251 363.546,-241.679"/>
<polygon fill="black" stroke="black" points="363.71,-245.181 373.745,-241.783 363.781,-238.181 363.71,-245.181"/>
<text text-anchor="middle" x="283" y="-244.8" font-family="Times,serif" font-size="14.00">14180:сага/65.718</text>
</g>
<!-- 4 -->
<g id="node6" class="node"><title>4</title>
<ellipse fill="none" stroke="black" cx="396" cy="-156" rx="42.4724" ry="42.4724"/>
<ellipse fill="none" stroke="black" cx="396" cy="-156" rx="46.4938" ry="46.4938"/>
<text text-anchor="middle" x="396" y="-152.3" font-family="Times,serif" font-size="14.00">4/24.292</text>
</g>
<!-- 3&#45;&gt;4 -->
<g id="edge8" class="edge"><title>3&#45;&gt;4</title>
<path fill="none" stroke="black" d="M216.051,-156.913C243.326,-156.774 297.945,-156.495 339.704,-156.282"/>
<polygon fill="black" stroke="black" points="339.766,-159.782 349.748,-156.231 339.73,-152.782 339.766,-159.782"/>
<text text-anchor="middle" x="283" y="-159.8" font-family="Times,serif" font-size="14.00">14180:сага/50.797</text>
</g>
<!-- 6 -->
<g id="node7" class="node"><title>6</title>
<ellipse fill="none" stroke="black" cx="396" cy="-46" rx="42.4724" ry="42.4724"/>
<ellipse fill="none" stroke="black" cx="396" cy="-46" rx="46.4938" ry="46.4938"/>
<text text-anchor="middle" x="396" y="-42.3" font-family="Times,serif" font-size="14.00">6/27.797</text>
</g>
<!-- 5&#45;&gt;6 -->
<g id="edge9" class="edge"><title>5&#45;&gt;6</title>
<path fill="none" stroke="black" d="M216.051,-46C243.326,-46 297.945,-46 339.704,-46"/>
<polygon fill="black" stroke="black" points="339.748,-49.5001 349.748,-46 339.748,-42.5001 339.748,-49.5001"/>
<text text-anchor="middle" x="283" y="-49.8" font-family="Times,serif" font-size="14.00">79:ага/51.998</text>
</g>
</g>
</svg>
