<?xml version="1.0" encoding="UTF-8" standalone="no"?>
<!DOCTYPE svg PUBLIC "-//W3C//DTD SVG 1.1//EN"
 "http://www.w3.org/Graphics/SVG/1.1/DTD/svg11.dtd">
<!-- Generated by graphviz version 2.36.0 (20140111.2315)
 -->
<!-- Title: FST Pages: 1 -->
<svg width="410pt" height="238pt"
 viewBox="0.00 0.00 410.00 237.72" xmlns="http://www.w3.org/2000/svg" xmlns:xlink="http://www.w3.org/1999/xlink">
<g id="graph0" class="graph" transform="scale(1 1) rotate(0) translate(4 233.725)">
<title>FST</title>
<polygon fill="white" stroke="none" points="-4,4 -4,-233.725 406,-233.725 406,4 -4,4"/>
<!-- 0 -->
<g id="node1" class="node"><title>0</title>
<ellipse fill="none" stroke="black" stroke-width="2" cx="18" cy="-112.725" rx="18" ry="18"/>
<text text-anchor="middle" x="18" y="-109.025" font-family="Times,serif" font-size="14.00">0</text>
</g>
<!-- 1 -->
<g id="node2" class="node"><title>1</title>
<ellipse fill="none" stroke="black" cx="202" cy="-207.725" rx="18" ry="18"/>
<text text-anchor="middle" x="202" y="-204.025" font-family="Times,serif" font-size="14.00">1</text>
</g>
<!-- 0&#45;&gt;1 -->
<g id="edge1" class="edge"><title>0&#45;&gt;1</title>
<path fill="none" stroke="black" d="M22.7862,-130.118C27.0284,-145.32 35.4498,-166.776 51,-178.725 86.7135,-206.166 141.044,-209.963 173.582,-209.409"/>
<polygon fill="black" stroke="black" points="173.841,-212.902 183.723,-209.082 173.615,-205.906 173.841,-212.902"/>
<text text-anchor="middle" x="110" y="-212.525" font-family="Times,serif" font-size="14.00">12949:мына/&#45;12.099</text>
</g>
<!-- 3 -->
<g id="node3" class="node"><title>3</title>
<ellipse fill="none" stroke="black" cx="202" cy="-131.725" rx="18" ry="18"/>
<text text-anchor="middle" x="202" y="-128.025" font-family="Times,serif" font-size="14.00">3</text>
</g>
<!-- 0&#45;&gt;3 -->
<g id="edge2" class="edge"><title>0&#45;&gt;3</title>
<path fill="none" stroke="black" d="M28.2982,-127.761C33.8579,-135.268 41.6576,-143.608 51,-147.725 98.9912,-168.873 117.958,-159.774 169,-147.725 171.684,-147.091 174.4,-146.196 177.056,-145.149"/>
<polygon fill="black" stroke="black" points="178.648,-148.269 186.248,-140.888 175.703,-141.918 178.648,-148.269"/>
<text text-anchor="middle" x="110" y="-163.525" font-family="Times,serif" font-size="14.00">2481:бара/&#45;26.518</text>
</g>
<!-- 0&#45;&gt;3 -->
<g id="edge3" class="edge"><title>0&#45;&gt;3</title>
<path fill="none" stroke="black" d="M36.1221,-114.512C67.7739,-117.817 135.672,-124.905 173.723,-128.877"/>
<polygon fill="black" stroke="black" points="173.747,-132.399 184.056,-129.956 174.473,-125.436 173.747,-132.399"/>
<text text-anchor="middle" x="110" y="-131.525" font-family="Times,serif" font-size="14.00">8354:кара/&#45;23.802</text>
</g>
<!-- 0&#45;&gt;3 -->
<g id="edge4" class="edge"><title>0&#45;&gt;3</title>
<path fill="none" stroke="black" d="M34.1375,-103.972C39.3134,-101.435 45.2507,-99.0055 51,-97.7248 102.19,-86.3225 120.857,-76.9236 169,-97.7248 174.816,-100.238 180.063,-104.385 184.547,-108.935"/>
<polygon fill="black" stroke="black" points="182.138,-111.499 191.338,-116.754 187.423,-106.909 182.138,-111.499"/>
<text text-anchor="middle" x="110" y="-101.525" font-family="Times,serif" font-size="14.00">12310:мага/&#45;23.056</text>
</g>
<!-- 5 -->
<g id="node4" class="node"><title>5</title>
<ellipse fill="none" stroke="black" cx="202" cy="-36.7248" rx="18" ry="18"/>
<text text-anchor="middle" x="202" y="-33.0248" font-family="Times,serif" font-size="14.00">5</text>
</g>
<!-- 0&#45;&gt;5 -->
<g id="edge5" class="edge"><title>0&#45;&gt;5</title>
<path fill="none" stroke="black" d="M26.2078,-96.6592C31.5948,-86.5068 39.9345,-73.9777 51,-66.7248 88.3534,-42.2417 141.362,-36.9791 173.338,-36.25"/>
<polygon fill="black" stroke="black" points="173.743,-39.7466 183.711,-36.1571 173.68,-32.7469 173.743,-39.7466"/>
<text text-anchor="middle" x="110" y="-70.5248" font-family="Times,serif" font-size="14.00">20158:ырас/&#45;22.248</text>
</g>
<!-- 0&#45;&gt;5 -->
<g id="edge6" class="edge"><title>0&#45;&gt;5</title>
<path fill="none" stroke="black" d="M19.2224,-94.3933C20.6003,-72.0704 26.6886,-35.1893 51,-17.7248 93.5935,12.8728 118.426,-3.84213 169,-17.7248 172.078,-18.5698 175.16,-19.7963 178.13,-21.2257"/>
<polygon fill="black" stroke="black" points="176.659,-24.4141 187.091,-26.264 180.09,-18.3123 176.659,-24.4141"/>
<text text-anchor="middle" x="110" y="-21.5248" font-family="Times,serif" font-size="14.00">12481:манас/&#45;24.234</text>
</g>
<!-- 2 -->
<g id="node5" class="node"><title>2</title>
<ellipse fill="none" stroke="black" cx="380" cy="-207.725" rx="18" ry="18"/>
<ellipse fill="none" stroke="black" cx="380" cy="-207.725" rx="22" ry="22"/>
<text text-anchor="middle" x="380" y="-204.025" font-family="Times,serif" font-size="14.00">2</text>
</g>
<!-- 1&#45;&gt;2 -->
<g id="edge7" class="edge"><title>1&#45;&gt;2</title>
<path fill="none" stroke="black" d="M220.196,-207.725C249.718,-207.725 310.45,-207.725 347.662,-207.725"/>
<polygon fill="black" stroke="black" points="347.942,-211.225 357.942,-207.725 347.942,-204.225 347.942,-211.225"/>
<text text-anchor="middle" x="289" y="-211.525" font-family="Times,serif" font-size="14.00">14180:сага/&#45;37.108</text>
</g>
<!-- 4 -->
<g id="node6" class="node"><title>4</title>
<ellipse fill="none" stroke="black" cx="380" cy="-131.725" rx="18" ry="18"/>
<ellipse fill="none" stroke="black" cx="380" cy="-131.725" rx="22" ry="22"/>
<text text-anchor="middle" x="380" y="-128.025" font-family="Times,serif" font-size="14.00">4</text>
</g>
<!-- 3&#45;&gt;4 -->
<g id="edge8" class="edge"><title>3&#45;&gt;4</title>
<path fill="none" stroke="black" d="M220.196,-131.725C249.718,-131.725 310.45,-131.725 347.662,-131.725"/>
<polygon fill="black" stroke="black" points="347.942,-135.225 357.942,-131.725 347.942,-128.225 347.942,-135.225"/>
<text text-anchor="middle" x="289" y="-135.525" font-family="Times,serif" font-size="14.00">14180:сага/&#45;28.292</text>
</g>
<!-- 6 -->
<g id="node7" class="node"><title>6</title>
<ellipse fill="none" stroke="black" cx="380" cy="-36.7248" rx="18" ry="18"/>
<ellipse fill="none" stroke="black" cx="380" cy="-36.7248" rx="22" ry="22"/>
<text text-anchor="middle" x="380" y="-33.0248" font-family="Times,serif" font-size="14.00">6</text>
</g>
<!-- 5&#45;&gt;6 -->
<g id="edge9" class="edge"><title>5&#45;&gt;6</title>
<path fill="none" stroke="black" d="M220.196,-36.7248C249.718,-36.7248 310.45,-36.7248 347.662,-36.7248"/>
<polygon fill="black" stroke="black" points="347.942,-40.2249 357.942,-36.7248 347.942,-33.2249 347.942,-40.2249"/>
<text text-anchor="middle" x="289" y="-40.5248" font-family="Times,serif" font-size="14.00">79:ага/&#45;28.292</text>
</g>
</g>
</svg>
