<?xml version="1.0" encoding="UTF-8" standalone="no"?>
<!DOCTYPE svg PUBLIC "-//W3C//DTD SVG 1.1//EN"
 "http://www.w3.org/Graphics/SVG/1.1/DTD/svg11.dtd">
<!-- Generated by graphviz version 2.36.0 (20140111.2315)
 -->
<!-- Title: FST Pages: 1 -->
<svg width="446pt" height="272pt"
 viewBox="0.00 0.00 446.00 272.00" xmlns="http://www.w3.org/2000/svg" xmlns:xlink="http://www.w3.org/1999/xlink">
<g id="graph0" class="graph" transform="scale(1 1) rotate(0) translate(4 268)">
<title>FST</title>
<polygon fill="white" stroke="none" points="-4,4 -4,-268 442,-268 442,4 -4,4"/>
<!-- 0 -->
<g id="node1" class="node"><title>0</title>
<ellipse fill="none" stroke="black" stroke-width="2" cx="18" cy="-139" rx="18" ry="18"/>
<text text-anchor="middle" x="18" y="-135.3" font-family="Times,serif" font-size="14.00">0</text>
</g>
<!-- 1 -->
<g id="node2" class="node"><title>1</title>
<ellipse fill="none" stroke="black" cx="194" cy="-240" rx="18" ry="18"/>
<text text-anchor="middle" x="194" y="-236.3" font-family="Times,serif" font-size="14.00">1</text>
</g>
<!-- 0&#45;&gt;1 -->
<g id="edge1" class="edge"><title>0&#45;&gt;1</title>
<path fill="none" stroke="black" d="M23.0178,-156.502C27.3841,-171.561 35.8566,-192.741 51,-205 84.0122,-231.723 134.512,-238.467 165.55,-239.931"/>
<polygon fill="black" stroke="black" points="165.55,-243.433 175.656,-240.253 165.773,-236.437 165.55,-243.433"/>
<text text-anchor="middle" x="106" y="-242.8" font-family="Times,serif" font-size="14.00">12949:мына/138.13</text>
</g>
<!-- 3 -->
<g id="node3" class="node"><title>3</title>
<ellipse fill="none" stroke="black" cx="194" cy="-157" rx="18" ry="18"/>
<text text-anchor="middle" x="194" y="-153.3" font-family="Times,serif" font-size="14.00">3</text>
</g>
<!-- 0&#45;&gt;3 -->
<g id="edge2" class="edge"><title>0&#45;&gt;3</title>
<path fill="none" stroke="black" d="M28.2982,-154.036C33.8579,-161.543 41.6576,-169.883 51,-174 95.7376,-193.715 113.561,-185.819 161,-174 163.861,-173.287 166.748,-172.265 169.554,-171.072"/>
<polygon fill="black" stroke="black" points="171.242,-174.141 178.634,-166.55 168.122,-167.875 171.242,-174.141"/>
<text text-anchor="middle" x="106" y="-189.8" font-family="Times,serif" font-size="14.00">2481:бара/219.58</text>
</g>
<!-- 0&#45;&gt;3 -->
<g id="edge3" class="edge"><title>0&#45;&gt;3</title>
<path fill="none" stroke="black" d="M36.0007,-140.759C66.1468,-143.877 129.21,-150.401 165.57,-154.162"/>
<polygon fill="black" stroke="black" points="165.623,-157.687 175.93,-155.234 166.344,-150.724 165.623,-157.687"/>
<text text-anchor="middle" x="106" y="-156.8" font-family="Times,serif" font-size="14.00">8354:кара/206.74</text>
</g>
<!-- 0&#45;&gt;3 -->
<g id="edge4" class="edge"><title>0&#45;&gt;3</title>
<path fill="none" stroke="black" d="M33.752,-129.837C38.9978,-127.071 45.0758,-124.399 51,-123 98.5811,-111.768 116.121,-103.609 161,-123 166.816,-125.513 172.063,-129.66 176.547,-134.21"/>
<polygon fill="black" stroke="black" points="174.138,-136.774 183.338,-142.03 179.423,-132.184 174.138,-136.774"/>
<text text-anchor="middle" x="106" y="-126.8" font-family="Times,serif" font-size="14.00">12310:мага/202.03</text>
</g>
<!-- 5 -->
<g id="node4" class="node"><title>5</title>
<ellipse fill="none" stroke="black" cx="194" cy="-46" rx="18" ry="18"/>
<text text-anchor="middle" x="194" y="-42.3" font-family="Times,serif" font-size="14.00">5</text>
</g>
<!-- 0&#45;&gt;5 -->
<g id="edge5" class="edge"><title>0&#45;&gt;5</title>
<path fill="none" stroke="black" d="M26.3412,-122.9C31.7845,-112.66 40.1368,-99.8884 51,-92 92.1991,-62.0829 113.132,-77.3513 161,-60 163.261,-59.1805 165.589,-58.2789 167.91,-57.3404"/>
<polygon fill="black" stroke="black" points="169.376,-60.5201 177.213,-53.3898 166.64,-54.0769 169.376,-60.5201"/>
<text text-anchor="middle" x="106" y="-95.8" font-family="Times,serif" font-size="14.00">20158:ырас/195.88</text>
</g>
<!-- 0&#45;&gt;5 -->
<g id="edge6" class="edge"><title>0&#45;&gt;5</title>
<path fill="none" stroke="black" d="M18.9873,-120.906C20.0679,-97.9885 25.7919,-59.2867 51,-41 85.085,-16.2737 136.852,-26.746 167.564,-36.4696"/>
<polygon fill="black" stroke="black" points="166.522,-39.8119 177.117,-39.6865 168.757,-33.1779 166.522,-39.8119"/>
<text text-anchor="middle" x="106" y="-44.8" font-family="Times,serif" font-size="14.00">12481:манас/216.9</text>
</g>
<!-- 2 -->
<g id="node5" class="node"><title>2</title>
<ellipse fill="none" stroke="black" cx="392" cy="-242" rx="18" ry="18"/>
<ellipse fill="none" stroke="black" cx="392" cy="-242" rx="22" ry="22"/>
<text text-anchor="middle" x="392" y="-238.3" font-family="Times,serif" font-size="14.00">2</text>
</g>
<!-- 1&#45;&gt;2 -->
<g id="edge7" class="edge"><title>1&#45;&gt;2</title>
<path fill="none" stroke="black" d="M212.051,-240.174C244.951,-240.51 317.636,-241.251 359.546,-241.679"/>
<polygon fill="black" stroke="black" points="359.71,-245.181 369.745,-241.783 359.781,-238.181 359.71,-245.181"/>
<text text-anchor="middle" x="279" y="-244.8" font-family="Times,serif" font-size="14.00">14180:сага/28.609</text>
</g>
<!-- 4 -->
<g id="node6" class="node"><title>4</title>
<ellipse fill="none" stroke="black" cx="392" cy="-156" rx="42.4724" ry="42.4724"/>
<ellipse fill="none" stroke="black" cx="392" cy="-156" rx="46.4938" ry="46.4938"/>
<text text-anchor="middle" x="392" y="-152.3" font-family="Times,serif" font-size="14.00">4/24.292</text>
</g>
<!-- 3&#45;&gt;4 -->
<g id="edge8" class="edge"><title>3&#45;&gt;4</title>
<path fill="none" stroke="black" d="M212.051,-156.913C239.326,-156.774 293.945,-156.495 335.704,-156.282"/>
<polygon fill="black" stroke="black" points="335.766,-159.782 345.748,-156.231 335.73,-152.782 335.766,-159.782"/>
<text text-anchor="middle" x="279" y="-159.8" font-family="Times,serif" font-size="14.00">14180:сага/22.505</text>
</g>
<!-- 6 -->
<g id="node7" class="node"><title>6</title>
<ellipse fill="none" stroke="black" cx="392" cy="-46" rx="42.4724" ry="42.4724"/>
<ellipse fill="none" stroke="black" cx="392" cy="-46" rx="46.4938" ry="46.4938"/>
<text text-anchor="middle" x="392" y="-42.3" font-family="Times,serif" font-size="14.00">6/27.797</text>
</g>
<!-- 5&#45;&gt;6 -->
<g id="edge9" class="edge"><title>5&#45;&gt;6</title>
<path fill="none" stroke="black" d="M212.051,-46C239.326,-46 293.945,-46 335.704,-46"/>
<polygon fill="black" stroke="black" points="335.748,-49.5001 345.748,-46 335.748,-42.5001 335.748,-49.5001"/>
<text text-anchor="middle" x="279" y="-49.8" font-family="Times,serif" font-size="14.00">79:ага/23.706</text>
</g>
</g>
</svg>
