<?xml version="1.0" encoding="UTF-8" standalone="no"?>
<!DOCTYPE svg PUBLIC "-//W3C//DTD SVG 1.1//EN"
 "http://www.w3.org/Graphics/SVG/1.1/DTD/svg11.dtd">
<!-- Generated by graphviz version 2.36.0 (20140111.2315)
 -->
<!-- Title: FST Pages: 1 -->
<svg width="318pt" height="223pt"
 viewBox="0.00 0.00 318.00 223.00" xmlns="http://www.w3.org/2000/svg" xmlns:xlink="http://www.w3.org/1999/xlink">
<g id="graph0" class="graph" transform="scale(1 1) rotate(0) translate(4 219)">
<title>FST</title>
<polygon fill="white" stroke="none" points="-4,4 -4,-219 314,-219 314,4 -4,4"/>
<!-- 0 -->
<g id="node1" class="node"><title>0</title>
<ellipse fill="none" stroke="black" stroke-width="2" cx="18" cy="-98" rx="18" ry="18"/>
<text text-anchor="middle" x="18" y="-94.3" font-family="Times,serif" font-size="14.00">0</text>
</g>
<!-- 1 -->
<g id="node2" class="node"><title>1</title>
<ellipse fill="none" stroke="black" cx="156" cy="-193" rx="18" ry="18"/>
<text text-anchor="middle" x="156" y="-189.3" font-family="Times,serif" font-size="14.00">1</text>
</g>
<!-- 0&#45;&gt;1 -->
<g id="edge1" class="edge"><title>0&#45;&gt;1</title>
<path fill="none" stroke="black" d="M23.9661,-115.032C28.7844,-128.719 37.3922,-147.496 51,-159 72.9157,-177.528 105.184,-186.028 127.953,-189.884"/>
<polygon fill="black" stroke="black" points="127.569,-193.366 137.978,-191.388 128.608,-186.443 127.569,-193.366"/>
<text text-anchor="middle" x="87" y="-191.8" font-family="Times,serif" font-size="14.00">12949:мына</text>
</g>
<!-- 3 -->
<g id="node3" class="node"><title>3</title>
<ellipse fill="none" stroke="black" cx="156" cy="-117" rx="18" ry="18"/>
<text text-anchor="middle" x="156" y="-113.3" font-family="Times,serif" font-size="14.00">3</text>
</g>
<!-- 0&#45;&gt;3 -->
<g id="edge2" class="edge"><title>0&#45;&gt;3</title>
<path fill="none" stroke="black" d="M28.2982,-113.036C33.8579,-120.543 41.6576,-128.883 51,-133 80.2828,-145.904 91.856,-140.352 123,-133 125.684,-132.366 128.4,-131.471 131.056,-130.424"/>
<polygon fill="black" stroke="black" points="132.648,-133.544 140.248,-126.163 129.703,-127.193 132.648,-133.544"/>
<text text-anchor="middle" x="87" y="-143.8" font-family="Times,serif" font-size="14.00">2481:бара</text>
</g>
<!-- 0&#45;&gt;3 -->
<g id="edge3" class="edge"><title>0&#45;&gt;3</title>
<path fill="none" stroke="black" d="M35.9495,-100.368C58.9567,-103.582 100.338,-109.363 127.739,-113.192"/>
<polygon fill="black" stroke="black" points="127.449,-116.685 137.837,-114.602 128.417,-109.752 127.449,-116.685"/>
<text text-anchor="middle" x="87" y="-115.8" font-family="Times,serif" font-size="14.00">8354:кара</text>
</g>
<!-- 0&#45;&gt;3 -->
<g id="edge4" class="edge"><title>0&#45;&gt;3</title>
<path fill="none" stroke="black" d="M34.1976,-89.8265C39.3774,-87.4586 45.3019,-85.1919 51,-84 82.3221,-77.4481 93.5309,-71.5271 123,-84 128.744,-86.4311 133.963,-90.4536 138.443,-94.8693"/>
<polygon fill="black" stroke="black" points="135.965,-97.3488 145.246,-102.46 141.178,-92.677 135.965,-97.3488"/>
<text text-anchor="middle" x="87" y="-87.8" font-family="Times,serif" font-size="14.00">12310:мага</text>
</g>
<!-- 5 -->
<g id="node4" class="node"><title>5</title>
<ellipse fill="none" stroke="black" cx="156" cy="-22" rx="18" ry="18"/>
<text text-anchor="middle" x="156" y="-18.3" font-family="Times,serif" font-size="14.00">5</text>
</g>
<!-- 0&#45;&gt;5 -->
<g id="edge5" class="edge"><title>0&#45;&gt;5</title>
<path fill="none" stroke="black" d="M28.0251,-82.9233C33.7001,-74.5645 41.7001,-64.5645 51,-58 74.3414,-41.5242 105.898,-32.0131 128.109,-26.9518"/>
<polygon fill="black" stroke="black" points="129.129,-30.3133 138.185,-24.8135 127.676,-23.4657 129.129,-30.3133"/>
<text text-anchor="middle" x="87" y="-61.8" font-family="Times,serif" font-size="14.00">20158:ырас</text>
</g>
<!-- 0&#45;&gt;5 -->
<g id="edge6" class="edge"><title>0&#45;&gt;5</title>
<path fill="none" stroke="black" d="M19.7787,-79.8787C21.7594,-59.0638 28.4973,-25.7615 51,-10 74.2124,6.25861 107.731,-1.74035 130.389,-10.4787"/>
<polygon fill="black" stroke="black" points="129.088,-13.7283 139.666,-14.3305 131.772,-7.2634 129.088,-13.7283"/>
<text text-anchor="middle" x="87" y="-13.8" font-family="Times,serif" font-size="14.00">12481:манас</text>
</g>
<!-- 2 -->
<g id="node5" class="node"><title>2</title>
<ellipse fill="none" stroke="black" cx="288" cy="-193" rx="18" ry="18"/>
<ellipse fill="none" stroke="black" cx="288" cy="-193" rx="22" ry="22"/>
<text text-anchor="middle" x="288" y="-189.3" font-family="Times,serif" font-size="14.00">2</text>
</g>
<!-- 1&#45;&gt;2 -->
<g id="edge7" class="edge"><title>1&#45;&gt;2</title>
<path fill="none" stroke="black" d="M174.263,-193C194.931,-193 229.951,-193 255.486,-193"/>
<polygon fill="black" stroke="black" points="255.78,-196.5 265.78,-193 255.78,-189.5 255.78,-196.5"/>
<text text-anchor="middle" x="220" y="-196.8" font-family="Times,serif" font-size="14.00">14180:сага</text>
</g>
<!-- 4 -->
<g id="node6" class="node"><title>4</title>
<ellipse fill="none" stroke="black" cx="288" cy="-117" rx="18" ry="18"/>
<ellipse fill="none" stroke="black" cx="288" cy="-117" rx="22" ry="22"/>
<text text-anchor="middle" x="288" y="-113.3" font-family="Times,serif" font-size="14.00">4</text>
</g>
<!-- 3&#45;&gt;4 -->
<g id="edge8" class="edge"><title>3&#45;&gt;4</title>
<path fill="none" stroke="black" d="M174.263,-117C194.931,-117 229.951,-117 255.486,-117"/>
<polygon fill="black" stroke="black" points="255.78,-120.5 265.78,-117 255.78,-113.5 255.78,-120.5"/>
<text text-anchor="middle" x="220" y="-120.8" font-family="Times,serif" font-size="14.00">14180:сага</text>
</g>
<!-- 6 -->
<g id="node7" class="node"><title>6</title>
<ellipse fill="none" stroke="black" cx="288" cy="-22" rx="18" ry="18"/>
<ellipse fill="none" stroke="black" cx="288" cy="-22" rx="22" ry="22"/>
<text text-anchor="middle" x="288" y="-18.3" font-family="Times,serif" font-size="14.00">6</text>
</g>
<!-- 5&#45;&gt;6 -->
<g id="edge9" class="edge"><title>5&#45;&gt;6</title>
<path fill="none" stroke="black" d="M174.263,-22C194.931,-22 229.951,-22 255.486,-22"/>
<polygon fill="black" stroke="black" points="255.78,-25.5001 265.78,-22 255.78,-18.5001 255.78,-25.5001"/>
<text text-anchor="middle" x="220" y="-25.8" font-family="Times,serif" font-size="14.00">79:ага</text>
</g>
</g>
</svg>
